<?xml version="1.0" encoding="utf-8"?>
<!-- Generator: Adobe Illustrator 24.3.0, SVG Export Plug-In . SVG Version: 6.00 Build 0)  -->
<svg version="1.1" id="Layer_1" xmlns="http://www.w3.org/2000/svg" xmlns:xlink="http://www.w3.org/1999/xlink" x="0px" y="0px"
	 viewBox="0 0 150 150" enable-background="new 0 0 150 150" xml:space="preserve">
<g>
	<g>
		<path fill="#FFCF00" d="M60.103,37.962l6,2.729v-4.191c0-1.806-1.351-3.27-3.017-3.27c-1.668,0-3.019,1.464-3.019,3.27v1.543
			L60.103,37.962z"/>
		<polygon fill="#FFCF00" points="66.103,47.478 66.103,42.747 60.066,40.002 60.066,44.732 		"/>
		<polygon fill="#FFCF00" points="66.103,53.958 66.103,49.309 66.018,49.495 60.066,46.788 60.066,51.213 		"/>
		<g>
			<polygon fill="#FFCF00" points="66.103,60.196 66.103,56.014 60.066,53.267 60.066,57.45 			"/>
			<path fill="#FFCF00" d="M60.066,59.506v7.087c0,1.805,1.351,3.27,3.019,3.27c1.666,0,3.017-1.465,3.017-3.27v-4.341
				L60.066,59.506z"/>
		</g>
	</g>
	<g>
		<path fill="#E47908" d="M80.626,37.962l6,2.729v-4.191c0-1.806-1.351-3.27-3.017-3.27c-1.668,0-3.019,1.464-3.019,3.27v1.543
			L80.626,37.962z"/>
		<polygon fill="#E47908" points="86.626,47.478 86.626,42.747 80.589,40.002 80.589,44.732 		"/>
		<polygon fill="#E47908" points="86.626,53.958 86.626,49.309 86.541,49.495 80.589,46.788 80.589,51.213 		"/>
		<g>
			<polygon fill="#E47908" points="86.626,60.196 86.626,56.014 80.589,53.267 80.589,57.45 			"/>
			<path fill="#E47908" d="M80.589,59.506v7.087c0,1.805,1.351,3.27,3.019,3.27c1.666,0,3.017-1.465,3.017-3.27v-4.341
				L80.589,59.506z"/>
		</g>
	</g>
	<g>
		<path fill="#23AF92" d="M70.327,28.681l5.999,2.729v-4.191c0-1.807-1.351-3.27-3.017-3.27c-1.668,0-3.019,1.464-3.019,3.27v1.543
			L70.327,28.681z"/>
		<polygon fill="#23AF92" points="76.327,38.197 76.327,33.466 70.29,30.721 70.29,35.451 		"/>
		<polygon fill="#23AF92" points="76.327,44.676 76.327,40.027 76.242,40.214 70.29,37.506 70.29,41.931 		"/>
		<g>
			<polygon fill="#23AF92" points="76.327,50.915 76.327,46.733 70.29,43.986 70.29,48.169 			"/>
			<path fill="#23AF92" d="M70.29,50.224v7.087c0,1.805,1.351,3.27,3.019,3.27c1.666,0,3.017-1.465,3.017-3.27V52.97L70.29,50.224z"
				/>
		</g>
	</g>
	<g>
		<path fill="#F4F7FA" d="M97.972,75.919V63.82c0-3.403-2.007-6.162-4.483-6.162H56.301c-2.476,0-4.483,2.759-4.483,6.162v12.099
			H97.972z"/>
		<path fill="#D94C52" d="M51.818,62.804c0,0,0.498-5.146,4.483-5.146s37.189,0,37.189,0s4.357,0.829,4.419,5.146
			c0,0-2.442,3.984-7.408,0c0,0-4.317,3.984-6.973,0c0,0-4.316,4.815-6.972-0.166c0,0-4.317,4.317-6.807-0.331
			c0,0-3.819,3.983-6.476,0c0,0-3.652,3.983-5.976,0.331C57.297,62.638,54.475,66.29,51.818,62.804z"/>
	</g>
	<g>
		<path fill="#F4F7FA" d="M107.902,99.315V82.034c0-4.861-2.867-8.803-6.402-8.803H48.381c-3.536,0-6.402,3.941-6.402,8.803v17.281
			H107.902z"/>
		<path fill="#D94C52" d="M41.979,80.582c0,0,0.712-7.351,6.402-7.351c5.692,0,53.119,0,53.119,0s6.222,1.185,6.312,7.351
			c0,0-3.488,5.692-10.581,0c0,0-6.166,5.692-9.96,0c0,0-6.165,6.877-9.959-0.237c0,0-6.166,6.166-9.722-0.474
			c0,0-5.454,5.691-9.249,0c0,0-5.215,5.691-8.536,0.474C49.804,80.345,45.774,85.562,41.979,80.582z"/>
	</g>
	<path fill="#F4F7FA" d="M118.618,126.051v-22.868c0-6.434-3.793-11.65-8.472-11.65H39.854c-4.679,0-8.472,5.215-8.472,11.65v22.868
		H118.618z"/>
	<path fill="#D94C52" d="M31.382,101.261c0,0,0.941-9.728,8.472-9.728s70.292,0,70.292,0s8.233,1.569,8.353,9.728
		c0,0-4.615,7.531-14.002,0c0,0-8.159,7.531-13.179,0c0,0-8.159,9.101-13.179-0.313c0,0-8.159,8.159-12.866-0.628
		c0,0-7.217,7.531-12.238,0c0,0-6.902,7.532-11.297,0.628C41.737,100.948,36.403,107.851,31.382,101.261z"/>
</g>
</svg>
